<?xml version="1.0" standalone="no"?>
<!DOCTYPE svg PUBLIC "-//W3C//DTD SVG 20010904//EN"
 "http://www.w3.org/TR/2001/REC-SVG-20010904/DTD/svg10.dtd">
<svg version="1.0" xmlns="http://www.w3.org/2000/svg"
 width="319.000000pt" height="319.000000pt" viewBox="0 0 319.000000 319.000000"
 preserveAspectRatio="xMidYMid meet">
<metadata>
Created by potrace 1.14, written by Peter Selinger 2001-2017
</metadata>
<g transform="translate(0.000000,319.000000) scale(0.100000,-0.100000)"
fill="#000000" stroke="none">
<path d="M1510 3164 c-8 -2 -55 -6 -105 -9 -49 -3 -107 -6 -127 -7 -21 -2 -38
-5 -38 -8 0 -3 -17 -6 -38 -6 -20 -1 -48 -5 -62 -8 -14 -4 -32 -9 -40 -11 -8
-2 -16 -4 -17 -5 -2 -2 -11 -3 -20 -4 -10 -1 -24 -5 -30 -9 -7 -5 -13 -6 -13
-2 0 3 -8 1 -18 -4 -11 -6 -30 -12 -44 -15 -14 -2 -54 -16 -89 -31 -35 -14
-71 -27 -78 -29 -8 -1 -17 -8 -19 -14 -2 -7 -8 -10 -13 -7 -11 7 -102 -43
-196 -107 -72 -50 -180 -150 -218 -202 -11 -15 -30 -40 -43 -54 -12 -15 -28
-39 -35 -54 -6 -16 -15 -28 -19 -28 -5 0 -8 -7 -8 -15 0 -8 -4 -15 -10 -15 -5
0 -9 -3 -8 -7 1 -5 -6 -20 -16 -35 -10 -15 -15 -31 -12 -37 3 -5 3 -11 -1 -13
-5 -1 -20 -27 -34 -55 -15 -29 -22 -50 -17 -47 6 4 3 -4 -5 -17 -9 -13 -18
-35 -21 -49 -4 -24 -9 -42 -23 -77 -3 -10 -8 -27 -10 -38 -2 -11 -6 -27 -9
-35 -4 -8 -8 -28 -11 -45 -7 -54 -9 -64 -15 -71 -4 -3 -4 -12 -2 -19 3 -7 1
-16 -5 -20 -8 -4 -8 -12 0 -27 7 -13 7 -18 1 -14 -6 4 -11 -2 -11 -11 1 -10
-2 -47 -6 -83 -9 -86 -13 -312 -6 -325 3 -5 6 -23 7 -40 4 -52 14 -107 21
-119 4 -6 8 -18 8 -26 0 -8 4 -21 9 -28 4 -7 5 -16 2 -19 -3 -3 0 -15 6 -27 7
-11 14 -32 16 -46 2 -13 8 -30 14 -37 5 -7 7 -17 3 -23 -3 -5 -1 -10 5 -10 7
0 10 -7 6 -15 -3 -8 -1 -15 4 -15 6 0 9 -3 8 -7 -1 -5 3 -18 10 -31 7 -12 10
-22 6 -22 -3 0 1 -11 10 -25 9 -13 16 -33 16 -45 0 -11 4 -20 9 -20 8 0 34
-61 36 -83 0 -4 7 -12 15 -17 8 -5 11 -10 7 -10 -7 0 1 -18 46 -105 32 -61 71
-131 76 -135 3 -3 12 -17 20 -32 8 -16 18 -28 23 -28 4 0 8 -5 8 -10 0 -16 60
-96 108 -146 6 -7 12 -17 12 -23 0 -6 4 -11 8 -11 12 0 100 -88 94 -95 -3 -3
2 -5 12 -5 9 0 26 -9 38 -20 12 -11 28 -20 35 -20 7 0 17 -9 23 -21 7 -11 14
-18 17 -15 3 3 20 -6 39 -20 18 -14 38 -23 44 -19 5 3 10 1 10 -4 0 -6 9 -11
19 -11 11 0 26 -6 33 -12 7 -7 24 -15 38 -17 14 -1 28 -8 32 -14 4 -6 10 -9
13 -5 4 4 25 0 47 -8 22 -8 57 -15 77 -17 20 -2 41 -5 46 -8 36 -19 690 -18
690 1 0 1 16 3 35 6 19 2 44 8 55 13 11 5 54 19 95 31 41 13 80 27 86 31 6 5
14 6 17 2 4 -3 7 0 7 7 0 7 3 11 6 7 4 -3 23 2 43 12 20 11 41 19 46 20 6 0
18 8 28 16 9 8 17 12 17 9 0 -4 7 -1 15 6 8 7 15 9 15 6 0 -4 7 0 16 8 8 9 20
14 25 11 5 -4 9 -2 9 3 0 6 12 15 28 21 15 6 56 29 91 51 34 22 66 40 70 40 3
0 18 11 33 25 15 14 32 25 38 25 5 0 10 5 10 10 0 6 4 10 10 10 5 0 23 14 40
31 16 18 30 29 30 26 0 -3 23 16 50 43 28 27 50 54 50 60 0 6 5 8 10 5 6 -3
10 -1 10 4 0 6 16 28 37 48 20 21 36 40 35 43 -1 3 8 15 18 28 11 12 20 27 20
32 0 6 5 10 10 10 6 0 10 7 10 15 0 8 5 15 11 15 5 0 7 5 4 10 -3 6 -2 10 4
10 9 0 22 26 20 44 0 5 6 13 15 18 9 5 14 13 11 19 -4 5 -1 9 5 9 6 0 10 8 8
18 -2 10 2 16 11 14 8 -2 11 3 8 12 -4 9 -2 18 4 21 5 4 7 10 4 15 -3 4 3 11
12 14 15 6 15 8 3 16 -11 7 -12 10 -2 10 7 0 11 4 8 9 -4 5 -2 11 4 13 6 2 13
14 16 28 6 30 9 40 17 60 7 19 18 69 20 93 1 9 4 17 8 17 4 0 6 8 4 18 -1 9 2
25 7 34 6 13 5 18 -4 18 -10 0 -10 2 -1 8 19 12 12 526 -7 550 -3 3 -5 11 -14
55 -5 20 -12 40 -17 43 -5 3 -9 12 -9 19 0 8 -12 40 -27 72 -15 32 -26 63 -25
69 1 6 -5 17 -13 24 -8 7 -15 21 -15 30 0 10 -3 20 -7 22 -5 2 -19 26 -32 53
-13 28 -31 59 -40 69 -13 16 -13 18 -1 11 12 -7 12 -5 -1 11 -9 10 -19 26 -23
34 -10 22 -28 52 -53 87 -13 17 -23 36 -23 42 0 6 -4 11 -10 11 -5 0 -10 6
-10 14 0 8 -3 16 -7 18 -5 2 -27 28 -50 58 -62 81 -176 200 -192 200 -8 0 -12
3 -8 6 8 8 -18 34 -33 34 -6 0 -8 5 -5 10 3 6 2 10 -3 10 -5 0 -25 12 -44 28
-53 40 -75 55 -84 55 -5 0 -14 7 -21 17 -7 9 -27 23 -45 31 -18 7 -35 15 -38
19 -13 14 -210 102 -210 93 0 -3 -6 -1 -12 4 -7 6 -38 16 -68 24 -69 17 -62
15 -80 22 -8 3 -22 6 -30 6 -44 2 -76 7 -80 13 -5 7 -282 17 -310 12z"/>
</g>
</svg>
